<?xml version="1.0" encoding="UTF-8"?>
<svg id="Layer_1" data-name="Layer 1" xmlns="http://www.w3.org/2000/svg" viewBox="0 0 5001.94 1046.98">
  <defs>
    <style>
      .cls-1 {
        fill: #fff;
        stroke-width: 0px;
      }
    </style>
  </defs>
  <path class="cls-1" d="m1964.56,565.88h.02v-1.85c0,.62-.01,1.24-.02,1.85Z"/>
  <g>
    <path class="cls-1" d="m3787.48,246.42h.02v-1.85c0,.62-.01,1.24-.02,1.85Z"/>
    <path class="cls-1" d="m3490.42,101.95c-5.7,10.64-8.93,22.79-8.95,35.7v26.45c-1.7,6.27-2.61,12.87-2.63,19.68v114.62c-8.74,32.32-38.27,56.09-73.35,56.09-41.95,0-75.97-34.01-75.97-75.97v-45.31c0-41.96-34.01-75.97-75.97-75.97s-75.98,34.01-75.98,75.97v8.58c-1.71,6.31-2.62,12.94-2.62,19.79v117.93c-8.72,32.34-38.25,56.14-73.35,56.14-41.96,0-75.98-34.02-75.98-75.98v-.29c-.04-6.72-.94-13.24-2.62-19.44-8.71-32.35-38.24-56.16-73.34-56.16-41.94,0-75.93,33.98-75.97,75.91v146.02c0,3.64-.26,7.22-.76,10.73-5.21,36.88-36.9,65.24-75.22,65.24s-70.01-28.36-75.21-65.24c-.5-3.51-.76-7.09-.76-10.73v-38.64h-.15c-2.64-39.56-35.57-70.82-75.8-70.82s-73.15,31.26-75.79,70.82h-.18v190.67c0,41.96-34.01,75.98-75.97,75.98s-75.98-34.02-75.98-75.98v-229.63c-.31-41.7-34.19-75.4-75.95-75.4s-75.86,33.9-75.97,75.77v169.4c0,41.96-34.01,75.97-75.97,75.97s-75.97-34.01-75.97-75.97v-91.57c0-41.96-34.02-75.97-75.98-75.97-33.16,0-61.34,21.23-71.71,50.85-2.76,7.85-4.26,16.3-4.26,25.09v150.4c0,41.9-33.51,76.62-75.4,76.93-42.22.31-76.55-33.81-76.55-75.97V206.81h-11.13v-104.86h1691.44Z"/>
    <path class="cls-1" d="m3785.36,101.95v105.63c-1.29,4.76-2.13,9.71-2.47,14.79h-.18v42.13c-8.76,32.29-38.27,56.03-73.32,56.03-41.34,0-74.97-33.02-75.95-74.13,0-.61-.02-1.23-.02-1.85v-106.79c0-12.95-3.24-25.14-8.96-35.81h160.9Z"/>
  </g>
  <g>
    <path class="cls-1" d="m5001.92,1.85h.02V0c0,.62-.01,1.24-.02,1.85Z"/>
    <path class="cls-1" d="m4089.25,102.08c-.74,4.24-1.13,8.59-1.13,13.04v146.02c0,3.64-.26,7.22-.76,10.73-5.21,36.88-36.9,65.24-75.22,65.24s-70.01-28.36-75.21-65.24c-.5-3.51-.76-7.09-.76-10.73v-38.64h-.15c-2.64-39.56-35.57-70.82-75.8-70.82-35.05,0-64.57,23.74-73.32,56.03-1.29,4.76-2.13,9.71-2.47,14.79h-.18v190.67c0,41.96-34.01,75.98-75.97,75.98s-75.98-34.02-75.98-75.98v-229.63c-.31-41.7-34.19-75.4-75.95-75.4-35.08,0-64.6,23.77-73.34,56.09-1.7,6.27-2.61,12.87-2.63,19.68v169.4c0,41.96-34.01,75.97-75.97,75.97s-75.97-34.01-75.97-75.97v-91.57c0-41.96-34.02-75.97-75.98-75.97-35.1,0-64.64,23.8-73.35,56.15-1.71,6.31-2.62,12.94-2.62,19.79v150.4c0,41.9-33.51,76.62-75.4,76.93-42.22.31-76.55-33.81-76.55-75.97V102.08h1064.71Z"/>
  </g>
  <path class="cls-1" d="m2048,101.95v245.77h-85.55v210.09c0,.62-.01,1.24-.02,1.85-.19,8.14-1.67,15.97-4.24,23.29-10.37,29.61-38.56,50.84-71.71,50.84-41.34,0-74.97-33.02-75.95-74.13-.01-.61-.02-1.23-.02-1.85v-106.79c0-8.82-1.5-17.29-4.27-25.16-10.38-29.6-38.57-50.82-71.71-50.82-41.93,0-75.91,33.96-75.97,75.87v140.87c0,41.96-34.02,75.97-75.98,75.97s-75.97-34.01-75.97-75.97v-45.31c0-41.96-34.01-75.97-75.97-75.97s-75.98,34.01-75.98,75.97v126.46c0,41.96-34.01,75.98-75.97,75.98s-75.98-34.02-75.98-75.98v-.29c-.21-41.78-34.13-75.6-75.96-75.6s-75.93,33.98-75.97,75.91v146.02c0,3.64-.26,7.22-.76,10.73-5.21,36.88-36.9,65.24-75.22,65.24s-70.01-28.36-75.21-65.24c-.5-3.51-.76-7.09-.76-10.73v-38.64h-.15c-2.64-39.56-35.57-70.82-75.8-70.82s-73.15,31.26-75.79,70.82h-.18v190.67c0,41.96-34.01,75.98-75.97,75.98s-75.98-34.02-75.98-75.98v-229.63c-.31-41.7-34.19-75.4-75.95-75.4s-75.86,33.9-75.97,75.77v169.4c0,41.96-34.01,75.97-75.97,75.97s-75.97-34.01-75.97-75.97v-91.57c0-41.96-34.02-75.97-75.98-75.97s-75.95,33.99-75.97,75.94v150.4c0,41.9-33.51,76.62-75.4,76.93-26.57.2-50.02-13.25-63.75-33.76V101.95h2048Z"/>
</svg>