<?xml version="1.0" encoding="UTF-8"?>
<svg id="Layer_1" data-name="Layer 1" xmlns="http://www.w3.org/2000/svg" viewBox="0 0 2910.87 671.03">
  <defs>
    <style>
      .cls-1 {
        fill: #fbc240;
      }

      .cls-1, .cls-2, .cls-3, .cls-4, .cls-5, .cls-6, .cls-7 {
        stroke-width: 0px;
      }

      .cls-2 {
        fill: #fcd374;
      }

      .cls-3 {
        fill: #fef5df;
      }

      .cls-4 {
        fill: #fde8b7;
      }

      .cls-5 {
        fill: #fdeac1;
      }

      .cls-6 {
        fill: #fccf6a;
      }

      .cls-7 {
        fill: #fde6b2;
      }
    </style>
  </defs>
  <path class="cls-1" d="m2522.24,1.39c-19.92,4.97-33.47,16.94-40.26,36.4-2.3,6.6-2.6,13.42-2.59,20.31.02,38.6.02,77.2,0,115.8,0,30.82-21.11,54.24-51.76,56-25.19,1.44-45.37-14.31-52.99-34.4-2.44-6.44-3.56-13.14-3.49-20.15.21-20.13.19-40.26.02-60.39-.07-8.28-.72-16.57-3.97-24.36-12.26-29.38-44.29-44.51-73.69-29.41-18.99,9.75-29.98,26.03-30.19,47.94-.33,35.28-.14,70.57-.06,105.85.03,14.24-3.66,27.14-13.14,38.02-13.53,15.53-30.62,22.04-50.9,18.39-19.97-3.6-33.69-15.4-41.19-34.25-2.29-5.76-3.27-11.79-3.2-18.05.16-13.97-.19-27.95.1-41.91.48-22.96-19.85-48.22-47.42-50.89-30.58-2.96-53,17.72-58.47,41.13-1.09,4.67-1.19,9.38-1.19,14.11-.02,33.63.1,67.26-.05,100.88-.09,19.78-8,36.16-24.38,47.24-30.1,20.37-74.01,6.87-83.31-35.26-2.48-11.22-1.01-22.66-1.16-33.99-.27-19.84-8.83-35.15-25.35-45.74-33.97-21.77-79.53,1.64-81.94,41.92-.21,3.54-.17,7.1-.17,10.65-.01,41.44.09,82.88-.05,124.33-.07,20.48-8.66,36.78-26.24,47.46-33.43,20.31-75.67-.33-81.6-37.29-.75-4.7-1.07-9.38-1.07-14.13.02-52.57-.33-105.15.17-157.72.21-22.44-15.85-49.2-44.17-54.24-19.32-3.44-44.12,3.89-56.66,27.63-4.27,8.09-6.59,16.54-6.55,25.83.17,39.07.04,78.15.09,117.22.02,18.26-5.66,34.08-20.23,45.72-16.29,13.01-34.69,16.12-54.09,8.5-19.09-7.49-30.51-21.79-33.84-42.23-.65-3.99-.81-7.99-.81-12.02-.04-21.78.03-43.57-.26-65.35-.31-22.92-20-45.53-45.02-49.62-26.18-4.28-55.39,12.65-61.39,43.29-.54,2.75-.5,5.65-.51,8.48-.09,35.76-.09,71.51-.23,107.27-.11,26.99-16.42,48.86-41.86,54.79-33.55,7.82-60.85-14.52-65.99-42.69-.81-4.41-1.12-8.88-1.12-13.41.07-47.84-.03-95.67.08-143.51.05-22.75-11.02-38.13-30.41-49.06-33.32-18.79-76.87,9.92-76.85,47.8.02,33.63.11,67.26-.04,100.88-.09,19.33-7.94,35.03-24.19,45.68-17.66,11.57-36.58,12.72-55.28,2.87-18.68-9.84-28.53-25.8-28.82-47.15-.14-10.89.11-21.79-.05-32.68-.37-25.09-15.75-45.51-39.18-52.51-33.16-9.91-68.25,14.72-68.71,50.64-.39,30.78.01,61.57-.11,92.36-.1,25.12-17.3,44.18-37.27,51.24-35.85,12.67-71.01-17.63-71.05-50.06-.02-12.7-3.55-24.23-11.2-34.47-12.53-16.77-35.05-25.14-55.66-19.67-21.6,5.74-34.95,19.91-39.94,41.8-1.01,4.43-1.22,8.88-1.21,13.39.03,33.39-.39,66.79.15,100.17.39,24.57-16.74,53.77-52.39,55.32-31.96,1.39-54.14-23.17-55.83-49.34-.62-9.67.18-19.43-.35-29.11-1.15-21.08-10.06-37.87-29.26-47.86-30.48-15.87-68.91,0-77.24,37.23-1.09,4.85-1.47,9.78-1.47,14.79.08,42.86-.32,85.73.18,128.59.3,26.26-19.89,51.72-48.96,54.25-29.41,2.56-54.68-17.35-59.01-45.87-.42-2.79-.32-5.67-.32-8.51-.02-53.28-.05-106.57.01-159.85.02-14.46-3.68-27.46-13.2-38.72-18.23-21.6-51.45-25.19-73.64-7.69-14.13,11.14-21.12,25.84-21.16,43.72-.09,39.31-.15,78.62.04,117.93.07,14.33-3.85,26.96-13.2,37.96-19.48,22.9-55.52,25.1-77.6,4.58-11.74-10.9-17.67-24.32-17.63-40.38.05-21.31.06-42.63,0-63.94-.08-27.54-17.79-49.06-44.73-54.47-27.92-5.61-57.63,15.05-62.13,43.13-.79,4.92-1.17,9.84-1.16,14.83.06,34.34.19,68.68-.02,103.01-.13,21.52-10.09,37.73-28.82,48.04-21.09,11.61-46.47,7.52-63.5-9.52-2.17-2.18-4.16-4.54-6.23-6.82-1.52-2.87-1.21-5.99-1.21-9.05-.01-210-.01-420,.02-630,0-3.01-.7-6.21,1.39-8.92h2519.41c.47.3.62.58.45.86-.17.27-.33.4-.5.4Z"/>
  <path class="cls-1" d="m2909.59,123.84c-4.91,19.39-17.61,31.64-36.23,37.46-32.3,10.1-65.13-11.5-69.47-45.04-1.34-10.39-.47-20.79-.72-31.19-.44-17.91-7.23-32.66-21.86-43.3-31.27-22.76-74.69-6.8-84.01,30.71-1.27,5.11-1.57,10.26-1.57,15.48.02,42.85.02,85.69,0,128.54,0,29.9-19.97,52.96-49.7,55.74-30.44,2.85-54.33-19.14-58.27-45.74-.76-5.15-1.01-10.33-1.01-15.55.06-51.84-.43-103.69.23-155.52.32-25.38-17.59-49.03-43.29-54.05-.51-.25-.68-.52-.54-.8.15-.29.31-.44.47-.44h367.24v119.36c-1.38,1.17-.15,3.11-1.28,4.35Z"/>
  <path class="cls-3" d="m2.87.13c-.09,2.6-.27,5.19-.27,7.79-.01,210.79-.01,421.58,0,632.38,0,2.6.05,5.2.07,7.81-.88-.48-1.76-.95-2.64-1.43,0-213.39,0-426.77,0-640.16C.02,4.86.1,3.2,0,1.55-.14-1.25,1.98.72,2.87.13Z"/>
  <path class="cls-4" d="m2532.25.13c-1.56,2.11-3.78,1.24-5.8,1.29-.39-.32-.5-.62-.34-.9.15-.26.3-.4.45-.4h5.69Z"/>
  <path class="cls-5" d="m2539.5,1.41c-2.03,0-4.25.83-5.83-1.27h5.69c.43.24.59.51.49.81-.11.31-.23.47-.36.47Z"/>
  <path class="cls-6" d="m2526.55.13c.01.44-.02.87-.11,1.29-1.4-.01-2.81-.02-4.21-.03.05-.42.06-.84.05-1.26h4.27Z"/>
  <path class="cls-2" d="m2539.5,1.41c-.08-.42-.13-.84-.13-1.27h4.27c-.02.42,0,.83.07,1.24-1.4.01-2.8.02-4.2.03Z"/>
  <path class="cls-7" d="m2909.59,123.84c-.31-1.67-.27-3.23,1.28-4.35v4.26c-.43,0-.86.03-1.28.08Z"/>
</svg>